<mxfile host="app.diagrams.net" modified="2024-02-12T04:10:29.215Z" agent="Mozilla/5.0 (X11; CrOS x86_64 14541.0.0) AppleWebKit/537.36 (KHTML, like Gecko) Chrome/120.0.0.0 Safari/537.36" etag="_ik5TYrz3vvG4zhbSPUL" version="23.1.2" type="github">
  <diagram name="Page-1" id="ZL9gF1LtW_wuSEkkGfpw">
    <mxGraphModel dx="1035" dy="541" grid="1" gridSize="10" guides="1" tooltips="1" connect="1" arrows="1" fold="1" page="1" pageScale="1" pageWidth="827" pageHeight="1169" math="0" shadow="0">
      <root>
        <mxCell id="0" />
        <mxCell id="1" parent="0" />
        <mxCell id="eoWPMeCTKfTz9lbIL09j-1" value="" style="rounded=0;whiteSpace=wrap;html=1;" vertex="1" parent="1">
          <mxGeometry x="350" y="30" width="230" height="450" as="geometry" />
        </mxCell>
        <mxCell id="eoWPMeCTKfTz9lbIL09j-3" value="" style="ellipse;whiteSpace=wrap;html=1;" vertex="1" parent="1">
          <mxGeometry x="390" y="290" width="150" height="60" as="geometry" />
        </mxCell>
        <mxCell id="eoWPMeCTKfTz9lbIL09j-4" value="" style="ellipse;whiteSpace=wrap;html=1;" vertex="1" parent="1">
          <mxGeometry x="390" y="200" width="150" height="60" as="geometry" />
        </mxCell>
        <mxCell id="eoWPMeCTKfTz9lbIL09j-6" value="" style="ellipse;whiteSpace=wrap;html=1;" vertex="1" parent="1">
          <mxGeometry x="390" y="110" width="150" height="60" as="geometry" />
        </mxCell>
        <mxCell id="eoWPMeCTKfTz9lbIL09j-8" value="t" style="ellipse;whiteSpace=wrap;html=1;" vertex="1" parent="1">
          <mxGeometry x="390" y="380" width="150" height="60" as="geometry" />
        </mxCell>
        <mxCell id="eoWPMeCTKfTz9lbIL09j-10" value="perpus digital" style="text;html=1;align=center;verticalAlign=middle;resizable=0;points=[];autosize=1;strokeColor=none;fillColor=none;" vertex="1" parent="1">
          <mxGeometry x="415" y="40" width="100" height="30" as="geometry" />
        </mxCell>
        <mxCell id="eoWPMeCTKfTz9lbIL09j-11" value="from pengunjung" style="text;html=1;strokeColor=none;fillColor=none;align=center;verticalAlign=middle;whiteSpace=wrap;rounded=0;" vertex="1" parent="1">
          <mxGeometry x="375" y="100" width="180" height="80" as="geometry" />
        </mxCell>
        <mxCell id="eoWPMeCTKfTz9lbIL09j-12" value="pencarian buku" style="text;html=1;strokeColor=none;fillColor=none;align=center;verticalAlign=middle;whiteSpace=wrap;rounded=0;" vertex="1" parent="1">
          <mxGeometry x="375" y="182.5" width="180" height="95" as="geometry" />
        </mxCell>
        <mxCell id="eoWPMeCTKfTz9lbIL09j-13" value="detail buku" style="text;html=1;strokeColor=none;fillColor=none;align=center;verticalAlign=middle;whiteSpace=wrap;rounded=0;" vertex="1" parent="1">
          <mxGeometry x="392.5" y="280" width="145" height="80" as="geometry" />
        </mxCell>
        <mxCell id="eoWPMeCTKfTz9lbIL09j-14" value="laporan statistik" style="text;html=1;strokeColor=none;fillColor=none;align=center;verticalAlign=middle;whiteSpace=wrap;rounded=0;" vertex="1" parent="1">
          <mxGeometry x="414" y="395" width="110" height="30" as="geometry" />
        </mxCell>
        <mxCell id="eoWPMeCTKfTz9lbIL09j-29" value="Actor" style="shape=umlActor;verticalLabelPosition=bottom;verticalAlign=top;html=1;outlineConnect=0;" vertex="1" parent="1">
          <mxGeometry x="170" y="150" width="90" height="177.5" as="geometry" />
        </mxCell>
        <mxCell id="eoWPMeCTKfTz9lbIL09j-30" value="Actor" style="shape=umlActor;verticalLabelPosition=bottom;verticalAlign=top;html=1;outlineConnect=0;" vertex="1" parent="1">
          <mxGeometry x="650" y="150" width="90" height="177.5" as="geometry" />
        </mxCell>
        <mxCell id="eoWPMeCTKfTz9lbIL09j-36" value="" style="endArrow=none;html=1;rounded=0;entryX=0.083;entryY=0.5;entryDx=0;entryDy=0;entryPerimeter=0;" edge="1" parent="1" source="eoWPMeCTKfTz9lbIL09j-29" target="eoWPMeCTKfTz9lbIL09j-11">
          <mxGeometry width="50" height="50" relative="1" as="geometry">
            <mxPoint x="380" y="320" as="sourcePoint" />
            <mxPoint x="430" y="270" as="targetPoint" />
          </mxGeometry>
        </mxCell>
        <mxCell id="eoWPMeCTKfTz9lbIL09j-37" value="" style="endArrow=none;html=1;rounded=0;entryX=0.083;entryY=0.5;entryDx=0;entryDy=0;entryPerimeter=0;" edge="1" parent="1" source="eoWPMeCTKfTz9lbIL09j-29" target="eoWPMeCTKfTz9lbIL09j-12">
          <mxGeometry width="50" height="50" relative="1" as="geometry">
            <mxPoint x="380" y="320" as="sourcePoint" />
            <mxPoint x="430" y="270" as="targetPoint" />
          </mxGeometry>
        </mxCell>
        <mxCell id="eoWPMeCTKfTz9lbIL09j-38" value="" style="endArrow=none;html=1;rounded=0;" edge="1" parent="1" target="eoWPMeCTKfTz9lbIL09j-30">
          <mxGeometry width="50" height="50" relative="1" as="geometry">
            <mxPoint x="540" y="140" as="sourcePoint" />
            <mxPoint x="430" y="270" as="targetPoint" />
          </mxGeometry>
        </mxCell>
        <mxCell id="eoWPMeCTKfTz9lbIL09j-39" value="" style="endArrow=none;html=1;rounded=0;exitX=0.917;exitY=0.5;exitDx=0;exitDy=0;exitPerimeter=0;" edge="1" parent="1" source="eoWPMeCTKfTz9lbIL09j-12" target="eoWPMeCTKfTz9lbIL09j-30">
          <mxGeometry width="50" height="50" relative="1" as="geometry">
            <mxPoint x="380" y="320" as="sourcePoint" />
            <mxPoint x="430" y="270" as="targetPoint" />
          </mxGeometry>
        </mxCell>
        <mxCell id="eoWPMeCTKfTz9lbIL09j-40" value="" style="endArrow=none;html=1;rounded=0;entryX=0;entryY=0.5;entryDx=0;entryDy=0;" edge="1" parent="1" source="eoWPMeCTKfTz9lbIL09j-29" target="eoWPMeCTKfTz9lbIL09j-13">
          <mxGeometry width="50" height="50" relative="1" as="geometry">
            <mxPoint x="380" y="320" as="sourcePoint" />
            <mxPoint x="430" y="270" as="targetPoint" />
          </mxGeometry>
        </mxCell>
        <mxCell id="eoWPMeCTKfTz9lbIL09j-41" value="" style="endArrow=none;html=1;rounded=0;exitX=1;exitY=0.5;exitDx=0;exitDy=0;" edge="1" parent="1" source="eoWPMeCTKfTz9lbIL09j-13" target="eoWPMeCTKfTz9lbIL09j-30">
          <mxGeometry width="50" height="50" relative="1" as="geometry">
            <mxPoint x="380" y="320" as="sourcePoint" />
            <mxPoint x="430" y="270" as="targetPoint" />
          </mxGeometry>
        </mxCell>
        <mxCell id="eoWPMeCTKfTz9lbIL09j-47" value="" style="endArrow=none;html=1;rounded=0;exitX=1;exitY=0.5;exitDx=0;exitDy=0;" edge="1" parent="1" source="eoWPMeCTKfTz9lbIL09j-8" target="eoWPMeCTKfTz9lbIL09j-30">
          <mxGeometry width="50" height="50" relative="1" as="geometry">
            <mxPoint x="590" y="430" as="sourcePoint" />
            <mxPoint x="640" y="380" as="targetPoint" />
          </mxGeometry>
        </mxCell>
      </root>
    </mxGraphModel>
  </diagram>
</mxfile>
